# Blender v3.0.0 OBJ File: 'SpaceShip.blend'
# www.blender.org
mtllib SpaceShip.mtl
o Cube_Cube.001
v -2.000000 -1.000000 4.000000
v -2.000000 0.879601 3.648592
v -1.000000 -0.597121 -5.365781
v -1.000000 -0.132966 -5.365781
v 2.000000 -1.000000 4.000000
v 2.000000 0.879601 3.648592
v 1.000000 -0.597121 -5.365781
v 1.000000 -0.132966 -5.365781
v -1.600000 -0.767682 0.000000
v -1.600000 0.603232 0.000000
v 1.600000 -0.767682 0.000000
v 1.600000 0.603232 0.000000
v 6.000000 -0.027593 1.344857
v 6.000000 -0.027593 2.862931
v 6.000000 -0.359440 2.862931
v 6.000000 -0.359440 1.344857
v -6.000000 -0.359440 1.344857
v -6.000000 -0.359440 2.862931
v -6.000000 -0.027593 2.862931
v -6.000000 -0.027593 1.344857
v 0.386651 -0.726243 -6.000000
v -0.386651 -0.726243 -6.000000
v -0.386651 -0.129867 -6.000000
v 0.386651 -0.129867 -6.000000
v -0.906667 1.069655 0.000000
v 0.906667 1.069655 0.000000
v 0.906667 -1.149447 0.000000
v -0.906667 -1.149447 0.000000
v -1.238870 0.244855 -3.611296
v 1.238870 -0.606049 -3.611296
v -1.238870 -0.606049 -3.611296
v 1.238870 0.244855 -3.611296
v -0.702027 -1.026165 -3.611296
v 0.702027 -1.026165 -3.611296
v 0.702027 0.568797 -3.611296
v -0.702027 0.568797 -3.611296
v -5.500000 -0.498760 3.475000
v -5.450000 -0.474537 0.875000
v -5.500000 0.144599 3.475000
v -5.450000 0.115784 0.875000
v 5.500000 -0.498760 3.475000
v 5.500000 0.144599 3.475000
v 5.450000 0.115784 0.875000
v 5.450000 -0.474537 0.875000
v -1.133333 -1.149447 4.311403
v 1.133333 -1.149447 4.311403
v 1.133333 1.194564 3.952074
v -1.133333 1.194564 3.952074
v -0.740308 -0.880074 4.374424
v -0.937391 -0.744412 4.374424
v -0.333305 0.141596 2.591367
v -0.815728 -0.869747 4.374424
v -0.879667 -0.840339 4.374424
v -0.922389 -0.796328 4.374424
v 0.937391 -0.744412 4.374424
v 0.740308 -0.880074 4.374424
v -0.333305 -0.559111 2.591367
v 0.922389 -0.796328 4.374424
v 0.879667 -0.840339 4.374424
v 0.815728 -0.869747 4.374424
v 0.740308 0.462558 4.245238
v 0.937391 0.326896 4.245238
v 0.333305 0.141596 2.591367
v 0.815728 0.452231 4.245238
v 0.879667 0.422824 4.245238
v 0.922389 0.378812 4.245238
v -0.937391 0.326896 4.245238
v -0.740308 0.462558 4.245238
v 0.333305 -0.559111 2.591367
v -0.922389 0.378812 4.245238
v -0.879667 0.422824 4.245238
v -0.815728 0.452231 4.245238
v -0.937391 -0.744412 3.495404
v -0.740308 -0.880074 3.495404
v -0.922389 -0.796328 3.495404
v -0.879667 -0.840339 3.495404
v -0.815728 -0.869747 3.495404
v 0.740308 -0.880074 3.495404
v 0.937391 -0.744412 3.495404
v 0.815728 -0.869747 3.495404
v 0.879667 -0.840339 3.495404
v 0.922389 -0.796328 3.495404
v 0.937391 0.326896 3.495404
v 0.740308 0.462558 3.495404
v 0.922389 0.378812 3.495404
v 0.879667 0.422824 3.495404
v 0.815728 0.452231 3.495404
v -0.740308 0.462558 3.495404
v -0.937391 0.326896 3.495404
v -0.815728 0.452231 3.495404
v -0.879667 0.422824 3.495404
v -0.922389 0.378812 3.495404
v 0.830836 -0.942120 4.371982
v -0.830836 -0.942120 4.371982
v -0.956565 0.411804 4.235629
v -0.982524 -0.837707 4.371982
v -0.778768 0.534191 4.235629
v 0.778768 0.534191 4.235629
v 0.956565 0.411804 4.235629
v 0.982524 -0.837707 4.371982
v 0.942249 0.455613 4.236717
v 0.903201 0.494423 4.237119
v 0.845630 0.522120 4.236717
v 0.966990 -0.870989 4.370731
v 0.931424 -0.903409 4.370242
v 0.882881 -0.928885 4.370731
v -0.966990 -0.870989 4.370731
v -0.931424 -0.903409 4.370242
v -0.882881 -0.928885 4.370731
v -0.845630 0.522120 4.236717
v -0.903201 0.494423 4.237119
v -0.942249 0.455613 4.236717
v -1.522111 -0.732821 -0.778888
v 1.456961 0.461284 -1.430386
v -0.862530 -1.122857 -0.778888
v 0.862530 -1.122857 -0.778888
v 0.791097 0.786797 -2.039468
v -0.791097 0.786797 -2.039468
v -1.456961 0.461284 -1.430386
v 1.522111 -0.732821 -0.778888
vt 0.380048 0.441945
vt 0.346360 0.457710
vt 0.328512 0.380608
vt 0.346888 0.372008
vt 0.257793 0.337919
vt 0.281419 0.348071
vt 0.266277 0.382971
vt 0.247889 0.375070
vt 0.066210 0.818183
vt 0.049989 0.839010
vt 0.032482 0.808290
vt 0.044528 0.802514
vt 0.377684 0.933624
vt 0.350737 0.824515
vt 0.396568 0.819613
vt 0.418773 0.912739
vt 0.747250 0.288912
vt 0.783442 0.288186
vt 0.797616 0.472034
vt 0.757310 0.486277
vt 0.351016 0.626760
vt 0.395593 0.623072
vt 0.338817 0.524237
vt 0.378401 0.548495
vt 0.745331 0.253273
vt 0.780323 0.252438
vt 0.163915 0.555677
vt 0.222367 0.550066
vt 0.207054 0.624788
vt 0.145827 0.584101
vt 0.451733 0.330314
vt 0.450936 0.449425
vt 0.426898 0.421616
vt 0.426210 0.352088
vt 0.023336 0.750354
vt 0.035576 0.752291
vt 0.031148 0.719192
vt 0.052645 0.733115
vt 0.959868 0.450410
vt 0.959533 0.331320
vt 0.984966 0.353189
vt 0.984008 0.422700
vt 0.572710 0.811545
vt 0.561413 0.805882
vt 0.570746 0.754648
vt 0.584262 0.752973
vt 0.555358 0.841229
vt 0.539469 0.820923
vt 0.553599 0.734416
vt 0.576236 0.719743
vt 0.631278 0.252108
vt 0.666297 0.253091
vt 0.664226 0.288718
vt 0.628026 0.287854
vt 0.261746 0.524266
vt 0.251355 0.628020
vt 0.253118 0.823341
vt 0.207937 0.818214
vt 0.653394 0.486085
vt 0.613136 0.471683
vt 0.185810 0.909516
vt 0.225548 0.929629
vt 0.789457 0.749374
vt 0.863562 0.778102
vt 0.840512 0.804426
vt 0.790414 0.783306
vt 0.312042 0.345735
vt 0.335653 0.334685
vt 0.297714 0.315119
vt 0.321325 0.304069
vt 0.269401 0.051924
vt 0.305343 0.051911
vt 0.318733 0.166160
vt 0.255556 0.165716
vt 0.239764 0.080014
vt 0.227171 0.162336
vt 0.688484 0.014714
vt 0.724182 0.014729
vt 0.737697 0.124788
vt 0.674424 0.124423
vt 0.658546 0.042784
vt 0.643497 0.122494
vt 0.251103 0.459550
vt 0.217393 0.445066
vt 0.754043 0.043054
vt 0.768645 0.122995
vt 0.334955 0.080284
vt 0.347101 0.162858
vt 0.437808 0.552293
vt 0.456871 0.580614
vt 0.873051 0.787052
vt 0.906079 0.833278
vt 0.866670 0.849663
vt 0.848695 0.811745
vt 0.793474 0.820645
vt 0.779855 0.783577
vt 0.781990 0.782756
vt 0.784515 0.783018
vt 0.715946 0.769888
vt 0.776770 0.749988
vt 0.743892 0.801348
vt 0.283089 0.957026
vt 0.286232 0.952605
vt 0.354806 0.927450
vt 0.360048 0.928800
vt 0.810938 0.862265
vt 0.868005 0.851942
vt 0.868190 0.855120
vt 0.365395 0.921556
vt 0.361979 0.917839
vt 0.348199 0.866959
vt 0.348024 0.862483
vt 0.255365 0.860070
vt 0.255151 0.864419
vt 0.241137 0.914255
vt 0.237748 0.917876
vt 0.338482 0.857839
vt 0.336732 0.861340
vt 0.266290 0.859295
vt 0.264714 0.855764
vt 0.362239 0.927336
vt 0.364074 0.925377
vt 0.365196 0.923322
vt 0.237927 0.919615
vt 0.239015 0.921647
vt 0.240810 0.923594
vt 0.242971 0.925057
vt 0.261559 0.855950
vt 0.258695 0.856823
vt 0.256551 0.858242
vt 0.346825 0.860565
vt 0.344633 0.859060
vt 0.341699 0.858101
vt 0.787314 0.782724
vt 0.785853 0.749479
vt 0.782376 0.749629
vt 0.779486 0.749795
vt 0.735736 0.810084
vt 0.706001 0.778942
vt 0.708917 0.776227
vt 0.737606 0.807017
vt 0.711508 0.773854
vt 0.739983 0.804876
vt 0.713938 0.771668
vt 0.741629 0.802543
vt 0.907170 0.835919
vt 0.908315 0.838718
vt 0.694583 0.877755
vt 0.653742 0.852059
vt 0.655898 0.848655
vt 0.696010 0.874112
vt 0.658134 0.845154
vt 0.698596 0.870801
vt 0.866420 0.780711
vt 0.843322 0.806026
vt 0.868909 0.783042
vt 0.845350 0.808149
vt 0.871193 0.785233
vt 0.847523 0.809624
vt 0.772789 0.847658
vt 0.812251 0.829932
vt 0.756578 0.880817
vt 0.272759 0.972169
vt 0.262546 0.859500
vt 0.259187 0.860437
vt 0.256606 0.862101
vt 0.242386 0.919581
vt 0.244852 0.921976
vt 0.241088 0.916884
vt 0.248151 0.923687
vt 0.358144 0.925687
vt 0.360662 0.923254
vt 0.362005 0.920518
vt 0.346716 0.864561
vt 0.344053 0.862793
vt 0.340581 0.861731
vt 0.323718 0.238099
vt 0.250477 0.238061
vt 0.213925 0.262810
vt 0.360000 0.262810
vn -0.9909 0.0000 -0.1349
vn 0.7188 0.0000 -0.6952
vn 0.7744 0.0000 0.6326
vn -0.3434 0.1559 0.9262
vn 0.3130 -0.9484 -0.0501
vn -0.4333 0.8974 -0.0831
vn -0.5450 0.8264 -0.1418
vn 0.4942 -0.8663 -0.0729
vn 0.9950 0.0000 -0.0995
vn -0.2344 -0.9721 -0.0086
vn 1.0000 0.0000 0.0000
vn 0.6495 0.0000 -0.7603
vn 0.2344 -0.9721 -0.0086
vn 0.2865 0.9580 -0.0102
vn -1.0000 0.0000 0.0000
vn -0.7744 0.0000 0.6326
vn -0.6495 0.0000 -0.7603
vn -0.2865 0.9580 -0.0102
vn -0.4942 -0.8663 -0.0729
vn 0.0000 -0.9994 -0.0341
vn 0.5450 0.8264 -0.1418
vn 0.0000 0.9905 -0.1374
vn 0.4333 0.8974 -0.0831
vn 0.0000 0.9995 -0.0316
vn -0.3130 -0.9484 -0.0501
vn 0.0000 -1.0000 0.0000
vn 0.3434 0.1559 0.9262
vn -0.7188 0.0000 -0.6952
vn 0.0000 0.0000 -1.0000
vn 0.0000 0.9598 -0.2807
vn 0.4023 0.8715 -0.2803
vn 0.0000 -0.9922 -0.1246
vn -0.4845 -0.8652 -0.1293
vn 0.9909 0.0000 -0.1349
vn 0.4845 -0.8652 -0.1293
vn -0.4023 0.8715 -0.2803
vn -0.9950 -0.0000 -0.0995
vn -0.1694 0.9837 -0.0602
vn -0.2216 0.0000 -0.9751
vn -0.1029 0.1372 0.9852
vn -0.1095 -0.9929 -0.0461
vn 0.1694 0.9837 -0.0602
vn 0.1095 -0.9929 -0.0461
vn 0.2216 0.0000 -0.9751
vn 0.1029 0.1372 0.9852
vn -0.7040 -0.4237 0.5699
vn 0.0000 -0.0393 0.9992
vn 0.7040 0.4237 0.5699
vn -0.1973 0.1136 0.9737
vn 0.1973 0.1136 0.9737
vn 0.0000 0.1330 0.9911
vn -0.0703 -0.1839 0.9804
vn -0.0932 -0.1586 0.9829
vn -0.1149 -0.1409 0.9833
vn -0.1617 -0.1123 0.9804
vn 0.1617 -0.1123 0.9804
vn 0.1149 -0.1409 0.9833
vn 0.0932 -0.1586 0.9829
vn 0.0703 -0.1839 0.9804
vn 0.0518 0.3704 0.9274
vn 0.1520 0.3294 0.9319
vn 0.2867 0.2789 0.9165
vn 0.5659 0.1649 0.8079
vn -0.5659 0.1649 0.8079
vn -0.2867 0.2789 0.9165
vn -0.1520 0.3294 0.9319
vn -0.0518 0.3704 0.9274
vn -0.1357 -0.9908 0.0000
vn -0.4179 -0.9085 0.0000
vn -0.7175 -0.6965 0.0000
vn -0.9607 -0.2776 0.0000
vn -0.1357 0.9908 0.0000
vn -0.4179 0.9085 0.0000
vn -0.7175 0.6965 0.0000
vn -0.9607 0.2776 0.0000
vn 0.9607 0.2776 0.0000
vn 0.7175 0.6965 0.0000
vn 0.4179 0.9085 0.0000
vn 0.1357 0.9908 0.0000
vn 0.1357 -0.9908 0.0000
vn 0.4179 -0.9085 0.0000
vn 0.7175 -0.6965 0.0000
vn 0.9607 -0.2776 0.0000
vn 0.0000 1.0000 0.0000
vn -0.8315 0.0000 0.5556
vn -0.7040 0.4237 0.5699
vn 0.8315 0.0000 0.5556
vn 0.2475 -0.8681 0.4304
vn 0.0000 0.9424 0.3346
vn 0.0000 -0.9424 0.3346
vn 0.0000 0.0000 1.0000
vn 0.7040 -0.4237 0.5699
vn -0.2475 -0.8681 0.4304
vn -0.2475 0.8681 0.4304
vn 0.2475 0.8681 0.4304
vn 0.0000 -0.2805 0.9599
vn -0.6409 0.1094 0.7598
vn 0.0000 0.3946 0.9189
vn 0.6409 0.1094 0.7598
vn 0.0439 0.1003 0.9940
vn 0.0907 0.0847 0.9923
vn 0.2196 0.0562 0.9740
vn 0.0116 0.1216 0.9925
vn 0.0242 -0.0408 0.9989
vn 0.0294 -0.0365 0.9989
vn 0.0245 -0.0234 0.9994
vn 0.0154 -0.0305 0.9994
vn -0.0242 -0.0408 0.9989
vn -0.0294 -0.0365 0.9989
vn -0.0244 -0.0234 0.9994
vn -0.0154 -0.0305 0.9994
vn -0.0907 0.0847 0.9923
vn -0.0439 0.1003 0.9940
vn -0.0116 0.1216 0.9925
vn -0.2196 0.0562 0.9740
vn 0.5245 0.8398 -0.1401
vn -0.5591 -0.8256 -0.0764
vn 0.5591 -0.8256 -0.0764
vn -0.5245 0.8398 -0.1401
usemtl Material.001
s off
f 31/1/1 29/2/1 4/3/1 3/4/1
f 21/5/2 24/6/2 8/7/2 7/8/2
f 42/9/3 41/10/3 15/11/3 14/12/3
f 45/13/4 48/14/4 2/15/4 1/16/4
f 27/17/5 11/18/5 5/19/5 46/20/5
f 25/21/6 10/22/6 2/15/6 48/14/6
f 118/23/7 119/24/7 10/22/7 25/21/7
f 116/25/8 120/26/8 11/18/8 27/17/8
f 120/27/9 114/28/9 12/29/9 11/30/9
f 38/31/10 37/32/10 18/33/10 17/34/10
f 16/35/11 13/36/11 14/12/11 15/11/11
f 44/37/12 43/38/12 13/36/12 16/35/12
f 41/39/13 44/40/13 16/41/13 15/42/13
f 43/38/14 42/9/14 14/12/14 13/36/14
f 18/43/15 19/44/15 20/45/15 17/46/15
f 37/47/16 39/48/16 19/44/16 18/43/16
f 40/49/17 38/50/17 17/46/17 20/45/17
f 39/48/18 40/49/18 20/45/18 19/44/18
f 113/51/19 115/52/19 28/53/19 9/54/19
f 115/52/20 116/25/20 27/17/20 28/53/20
f 114/28/21 117/55/21 26/56/21 12/29/21
f 117/55/22 118/23/22 25/21/22 26/56/22
f 12/29/23 26/56/23 47/57/23 6/58/23
f 26/56/24 25/21/24 48/14/24 47/57/24
f 9/54/25 28/53/25 45/59/25 1/60/25
f 28/53/26 27/17/26 46/20/26 45/59/26
f 5/61/27 6/58/27 47/57/27 46/62/27
f 61/63/26 68/64/26 88/65/26 84/66/26
f 3/4/28 4/3/28 23/67/28 22/68/28
f 22/68/29 23/67/29 24/69/29 21/70/29
f 24/71/30 23/72/30 36/73/30 35/74/30
f 8/75/31 24/71/31 35/74/31 32/76/31
f 22/77/32 21/78/32 34/79/32 33/80/32
f 3/81/33 22/77/33 33/80/33 31/82/33
f 7/8/34 8/7/34 32/83/34 30/84/34
f 21/78/35 7/85/35 30/86/35 34/79/35
f 23/72/36 4/87/36 29/88/36 36/73/36
f 113/89/37 119/24/37 29/2/37 31/1/37
f 2/15/38 10/22/38 40/49/38 39/48/38
f 10/22/39 9/90/39 38/50/39 40/49/39
f 1/16/40 2/15/40 39/48/40 37/47/40
f 9/54/41 1/60/41 37/32/41 38/31/41
f 12/29/42 6/58/42 42/9/42 43/38/42
f 5/19/43 11/18/43 44/40/43 41/39/43
f 11/30/44 12/29/44 43/38/44 44/37/44
f 6/58/45 5/61/45 41/10/45 42/9/45
f 67/91/11 50/92/11 73/93/11 89/94/11
f 63/95/46 83/96/46 85/97/46 86/98/46
f 55/99/15 62/100/15 83/96/15 79/101/15
f 93/102/47 56/103/47 49/104/47 94/105/47
f 57/106/48 73/93/48 75/107/48 76/108/48
f 96/109/49 50/110/49 67/111/49 95/112/49
f 99/113/50 62/114/50 55/115/50 100/116/50
f 97/117/51 68/118/51 61/119/51 98/120/51
f 94/105/52 109/121/52 45/13/52
f 109/121/53 108/122/53 45/13/53
f 108/122/54 107/123/54 45/13/54
f 107/123/55 96/109/55 45/13/55
f 100/116/56 104/124/56 46/62/56
f 104/124/57 105/125/57 46/62/57
f 105/125/58 106/126/58 46/62/58
f 106/126/59 93/127/59 46/62/59
f 98/120/60 103/128/60 47/57/60
f 103/128/61 102/129/61 47/57/61
f 102/129/62 101/130/62 47/57/62
f 101/130/63 99/113/63 47/57/63
f 95/112/64 112/131/64 48/14/64
f 112/131/65 111/132/65 48/14/65
f 111/132/66 110/133/66 48/14/66
f 110/133/67 97/117/67 48/14/67
f 61/63/68 84/66/68 87/134/68 64/135/68
f 64/135/69 87/134/69 86/98/69 65/136/69
f 65/136/70 86/98/70 85/97/70 66/137/70
f 66/137/71 85/97/71 83/96/71 62/100/71
f 78/138/72 56/139/72 60/140/72 80/141/72
f 80/141/73 60/140/73 59/142/73 81/143/73
f 81/143/74 59/142/74 58/144/74 82/145/74
f 82/145/75 58/144/75 55/99/75 79/101/75
f 73/93/76 50/92/76 54/146/76 75/107/76
f 75/107/77 54/146/77 53/147/77 76/108/77
f 76/148/78 53/149/78 52/150/78 77/151/78
f 77/151/79 52/150/79 49/152/79 74/153/79
f 88/65/80 68/64/80 72/154/80 90/155/80
f 90/155/81 72/154/81 71/156/81 91/157/81
f 91/157/82 71/156/82 70/158/82 92/159/82
f 92/159/83 70/158/83 67/91/83 89/94/83
f 49/152/84 56/139/84 78/138/84 74/153/84
f 69/160/85 79/101/85 83/96/85 63/95/85
f 69/160/86 81/143/86 82/145/86 79/101/86
f 73/93/87 57/106/87 51/161/87 89/94/87
f 51/161/88 88/65/88 90/155/88 91/157/88
f 74/153/89 78/138/89 69/160/89 57/162/89
f 51/161/90 63/95/90 84/66/90 88/65/90
f 57/106/91 69/160/91 63/95/91 51/161/91
f 89/94/92 51/161/92 91/157/92 92/159/92
f 84/66/93 63/95/93 86/98/93 87/134/93
f 78/138/94 80/141/94 81/143/94 69/160/94
f 74/153/95 57/162/95 76/148/95 77/151/95
f 46/163/96 93/102/96 94/105/96 45/13/96
f 45/13/97 96/109/97 95/112/97 48/14/97
f 48/14/98 97/117/98 98/120/98 47/57/98
f 47/57/99 99/113/99 100/116/99 46/62/99
f 64/164/100 65/165/100 102/129/100 103/128/100
f 65/165/101 66/166/101 101/130/101 102/129/101
f 66/166/102 62/114/102 99/113/102 101/130/102
f 61/119/103 64/164/103 103/128/103 98/120/103
f 59/167/104 60/168/104 106/126/104 105/125/104
f 58/169/105 59/167/105 105/125/105 104/124/105
f 55/115/106 58/169/106 104/124/106 100/116/106
f 60/168/107 56/170/107 93/127/107 106/126/107
f 52/171/108 53/172/108 108/122/108 109/121/108
f 53/172/109 54/173/109 107/123/109 108/122/109
f 54/173/110 50/110/110 96/109/110 107/123/110
f 49/104/111 52/171/111 109/121/111 94/105/111
f 70/174/112 71/175/112 111/132/112 112/131/112
f 71/175/113 72/176/113 110/133/113 111/132/113
f 72/176/114 68/118/114 97/117/114 110/133/114
f 67/111/115 70/174/115 112/131/115 95/112/115
f 9/90/37 10/22/37 119/24/37 113/89/37
f 35/74/22 36/73/22 118/177/22 117/178/22
f 32/76/116 35/74/116 117/178/116 114/179/116
f 33/80/20 34/79/20 116/25/20 115/52/20
f 31/82/117 33/80/117 115/52/117 113/51/117
f 30/84/9 32/83/9 114/28/9 120/27/9
f 34/79/118 30/86/118 120/26/118 116/25/118
f 36/73/119 29/88/119 119/180/119 118/177/119
